rotated_Sprint_07200001_forces_filt10Hz.mot
version=1
nRows=57
nColumns=19
inDegrees=yes
endheader
time	R_ground_force_vx	R_ground_force_vy	R_ground_force_vz	R_ground_force_px	R_ground_force_py	R_ground_force_pz	R_ground_torque_x	R_ground_torque_y	R_ground_torque_z	L_ground_force_vx	L_ground_force_vy	L_ground_force_vz	L_ground_force_px	L_ground_force_py	L_ground_force_pz	L_ground_torque_x	L_ground_torque_y	L_ground_torque_z	
0.000000	  0.000000	  0.000000	  0.000000	  0.175982	  0.000000	 -0.546572	  0.000000	  0.000000	  0.000000	  0.000000	  0.000000	  0.000000	  1.204600	  0.000000	 -0.172650	  0.000000	  0.000000	  0.000000
0.000500	  0.000000	  0.000000	  0.000000	  0.177108	 -0.000000	 -0.548824	  0.000000	  0.000000	  0.000000	  0.000000	  0.000000	  0.000000	  1.205115	 -0.000000	 -0.172439	  0.000000	  0.000000	  0.000000
0.001000	  0.000000	  0.000000	  0.000000	  0.178233	 -0.000000	 -0.551077	  0.000000	  0.000000	  0.000000	  0.000000	  0.000000	  0.000000	  1.205630	 -0.000000	 -0.172227	  0.000000	  0.000000	  0.000000
0.001500	  0.000000	  0.000000	  0.000000	  0.179359	 -0.000000	 -0.553329	  0.000000	  0.000000	  0.000000	  0.000000	  0.000000	  0.000000	  1.206146	 -0.000000	 -0.172016	  0.000000	  0.000000	  0.000000
0.002000	  0.000000	  0.000000	  0.000000	  0.180484	 -0.000000	 -0.555582	  0.000000	  0.000000	  0.000000	  0.000000	  0.000000	  0.000000	  1.206661	 -0.000000	 -0.171805	  0.000000	  0.000000	  0.000000
0.002500	  0.000000	  0.000000	  0.000000	  0.181609	  0.000000	 -0.557834	  0.000000	  0.000000	  0.000000	  0.000000	  0.000000	  0.000000	  1.207176	  0.000000	 -0.171594	  0.000000	  0.000000	  0.000000
0.003000	  0.000000	  0.000000	  0.000000	  0.182735	  0.000000	 -0.560086	  0.000000	  0.000000	  0.000000	  0.000000	  0.000000	  0.000000	  1.207691	  0.000000	 -0.171382	  0.000000	  0.000000	  0.000000
0.003500	  0.000000	  0.000000	  0.000000	  0.183860	  0.000000	 -0.562339	  0.000000	  0.000000	  0.000000	  0.000000	  0.000000	  0.000000	  1.208206	  0.000000	 -0.171171	  0.000000	  0.000000	  0.000000
0.004000	  0.000000	  0.000000	  0.000000	  0.184986	  0.000000	 -0.564591	  0.000000	  0.000000	  0.000000	  0.000000	  0.000000	  0.000000	  1.208722	  0.000000	 -0.170960	  0.000000	  0.000000	  0.000000
0.004500	  0.000000	  0.000000	  0.000000	  0.186111	  0.000000	 -0.566844	  0.000000	  0.000000	  0.000000	  0.000000	  0.000000	  0.000000	  1.209237	  0.000000	 -0.170748	  0.000000	  0.000000	  0.000000
0.005000	  0.000000	  0.000000	  0.000000	  0.187237	  0.000000	 -0.569096	  0.000000	  0.000000	  0.000000	  0.000000	  0.000000	  0.000000	  1.209752	  0.000000	 -0.170537	  0.000000	  0.000000	  0.000000
0.005500	  0.000000	  0.000000	  0.000000	  0.188553	  0.000000	 -0.571241	  0.000000	  0.000000	  0.000000	  0.000000	  0.000000	  0.000000	  1.209859	  0.000000	 -0.170331	  0.000000	  0.000000	  0.000000
0.006000	  0.000000	  0.000000	  0.000000	  0.189870	  0.000000	 -0.573385	  0.000000	  0.000000	  0.000000	  0.000000	  0.000000	  0.000000	  1.209967	  0.000000	 -0.170125	  0.000000	  0.000000	  0.000000
0.006500	  0.000000	  0.000000	  0.000000	  0.191186	  0.000000	 -0.575530	  0.000000	  0.000000	  0.000000	  0.000000	  0.000000	  0.000000	  1.210074	  0.000000	 -0.169918	  0.000000	  0.000000	  0.000000
0.007000	  0.000000	  0.000000	  0.000000	  0.192502	  0.000000	 -0.577675	  0.000000	  0.000000	  0.000000	  0.000000	  0.000000	  0.000000	  1.210181	  0.000000	 -0.169712	  0.000000	  0.000000	  0.000000
0.007500	  0.000000	  0.000000	  0.000000	  0.193818	  0.000000	 -0.579820	  0.000000	  0.000000	  0.000000	  0.000000	  0.000000	  0.000000	  1.210289	  0.000000	 -0.169506	  0.000000	  0.000000	  0.000000
0.008000	  0.000000	  0.000000	  0.000000	  0.195135	  0.000000	 -0.581964	  0.000000	  0.000000	  0.000000	  0.000000	  0.000000	  0.000000	  1.210396	  0.000000	 -0.169300	  0.000000	  0.000000	  0.000000
0.008500	  0.000000	  0.000000	  0.000000	  0.196451	  0.000000	 -0.584109	  0.000000	  0.000000	  0.000000	  0.000000	  0.000000	  0.000000	  1.210503	  0.000000	 -0.169094	  0.000000	  0.000000	  0.000000
0.009000	  0.000000	  0.000000	  0.000000	  0.197767	  0.000000	 -0.586254	  0.000000	  0.000000	  0.000000	  0.000000	  0.000000	  0.000000	  1.210610	  0.000000	 -0.168887	  0.000000	  0.000000	  0.000000
0.009500	  0.000000	  0.000000	  0.000000	  0.199084	  0.000000	 -0.588398	  0.000000	  0.000000	  0.000000	  0.000000	  0.000000	  0.000000	  1.210718	  0.000000	 -0.168681	  0.000000	  0.000000	  0.000000
0.010000	  0.000000	  0.000000	  0.000000	  0.200400	  0.000000	 -0.590543	  0.000000	  0.000000	  0.000000	  0.000000	  0.000000	  0.000000	  1.210825	  0.000000	 -0.168475	  0.000000	  0.000000	  0.000000
0.010500	  0.000000	  0.000000	  0.000000	  0.201844	  0.000000	 -0.592583	  0.000000	  0.000000	  0.000000	  0.000000	  0.000000	  0.000000	  1.210557	  0.000000	 -0.168268	  0.000000	  0.000000	  0.000000
0.011000	  0.000000	  0.000000	  0.000000	  0.203287	  0.000000	 -0.594623	  0.000000	  0.000000	  0.000000	  0.000000	  0.000000	  0.000000	  1.210289	  0.000000	 -0.168060	  0.000000	  0.000000	  0.000000
0.011500	  0.000000	  0.000000	  0.000000	  0.204731	  0.000000	 -0.596663	  0.000000	  0.000000	  0.000000	  0.000000	  0.000000	  0.000000	  1.210021	  0.000000	 -0.167853	  0.000000	  0.000000	  0.000000
0.012000	  0.000000	  0.000000	  0.000000	  0.206174	  0.000000	 -0.598703	  0.000000	  0.000000	  0.000000	  0.000000	  0.000000	  0.000000	  1.209753	  0.000000	 -0.167645	  0.000000	  0.000000	  0.000000
0.012500	  0.000000	  0.000000	  0.000000	  0.207618	  0.000000	 -0.600744	  0.000000	  0.000000	  0.000000	  0.000000	  0.000000	  0.000000	  1.209485	  0.000000	 -0.167438	  0.000000	  0.000000	  0.000000
0.013000	  0.000000	  0.000000	  0.000000	  0.209062	  0.000000	 -0.602784	  0.000000	  0.000000	  0.000000	  0.000000	  0.000000	  0.000000	  1.209217	  0.000000	 -0.167231	  0.000000	  0.000000	  0.000000
0.013500	  0.000000	  0.000000	  0.000000	  0.210505	  0.000000	 -0.604824	  0.000000	  0.000000	  0.000000	  0.000000	  0.000000	  0.000000	  1.208949	  0.000000	 -0.167023	  0.000000	  0.000000	  0.000000
0.014000	  0.000000	  0.000000	  0.000000	  0.211949	  0.000000	 -0.606864	  0.000000	  0.000000	  0.000000	  0.000000	  0.000000	  0.000000	  1.208681	  0.000000	 -0.166816	  0.000000	  0.000000	  0.000000
0.014500	  0.000000	  0.000000	  0.000000	  0.213392	  0.000000	 -0.608904	  0.000000	  0.000000	  0.000000	  0.000000	  0.000000	  0.000000	  1.208413	  0.000000	 -0.166608	  0.000000	  0.000000	  0.000000
0.015000	  0.000000	  0.000000	  0.000000	  0.214836	  0.000000	 -0.610944	  0.000000	  0.000000	  0.000000	  0.000000	  0.000000	  0.000000	  1.208145	  0.000000	 -0.166401	  0.000000	  0.000000	  0.000000
0.015500	  0.000000	  0.000000	  0.000000	  0.216376	  0.000000	 -0.612816	  0.000000	  0.000000	  0.000000	  0.000000	  0.000000	  0.000000	  1.207553	  0.000000	 -0.166206	  0.000000	  0.000000	  0.000000
0.016000	  0.000000	  0.000000	  0.000000	  0.217917	  0.000000	 -0.614687	  0.000000	  0.000000	  0.000000	  0.000000	  0.000000	  0.000000	  1.206960	  0.000000	 -0.166011	  0.000000	  0.000000	  0.000000
0.016500	  0.000000	  0.000000	  0.000000	  0.219457	  0.000000	 -0.616559	  0.000000	  0.000000	  0.000000	  0.000000	  0.000000	  0.000000	  1.206368	  0.000000	 -0.165816	  0.000000	  0.000000	  0.000000
0.017000	  0.000000	  0.000000	  0.000000	  0.220997	  0.000000	 -0.618431	  0.000000	  0.000000	  0.000000	  0.000000	  0.000000	  0.000000	  1.205776	  0.000000	 -0.165621	  0.000000	  0.000000	  0.000000
0.017500	  0.000000	  0.000000	  0.000000	  0.222538	  0.000000	 -0.620302	  0.000000	  0.000000	  0.000000	  0.000000	  0.000000	  0.000000	  1.205184	  0.000000	 -0.165427	  0.000000	  0.000000	  0.000000
0.018000	  0.000000	  0.000000	  0.000000	  0.224078	  0.000000	 -0.622174	  0.000000	  0.000000	  0.000000	  0.000000	  0.000000	  0.000000	  1.204591	  0.000000	 -0.165232	  0.000000	  0.000000	  0.000000
0.018500	  0.000000	  0.000000	  0.000000	  0.225618	  0.000000	 -0.624046	  0.000000	  0.000000	  0.000000	  0.000000	  0.000000	  0.000000	  1.203999	  0.000000	 -0.165037	  0.000000	  0.000000	  0.000000
0.019000	  0.000000	  0.000000	  0.000000	  0.227158	  0.000000	 -0.625918	  0.000000	  0.000000	  0.000000	  0.000000	  0.000000	  0.000000	  1.203407	  0.000000	 -0.164842	  0.000000	  0.000000	  0.000000
0.019500	  0.000000	  0.000000	  0.000000	  0.228699	  0.000000	 -0.627789	  0.000000	  0.000000	  0.000000	  0.000000	  0.000000	  0.000000	  1.202814	  0.000000	 -0.164647	  0.000000	  0.000000	  0.000000
0.020000	  0.000000	  0.000000	  0.000000	  0.230239	  0.000000	 -0.629661	  0.000000	  0.000000	  0.000000	  0.000000	  0.000000	  0.000000	  1.202222	  0.000000	 -0.164452	  0.000000	  0.000000	  0.000000
0.020500	  0.000000	  0.000000	  0.000000	  0.231910	  0.000000	 -0.631460	  0.000000	  0.000000	  0.000000	  0.000000	  0.000000	  0.000000	  1.201323	  0.000000	 -0.164223	  0.000000	  0.000000	  0.000000
0.021000	  0.000000	  0.000000	  0.000000	  0.233581	  0.000000	 -0.633260	  0.000000	  0.000000	  0.000000	  0.000000	  0.000000	  0.000000	  1.200424	  0.000000	 -0.163993	  0.000000	  0.000000	  0.000000
0.021500	  0.000000	  0.000000	  0.000000	  0.235253	  0.000000	 -0.635059	  0.000000	  0.000000	  0.000000	  0.000000	  0.000000	  0.000000	  1.199526	  0.000000	 -0.163764	  0.000000	  0.000000	  0.000000
0.022000	  0.000000	  0.000000	  0.000000	  0.236924	  0.000000	 -0.636859	  0.000000	  0.000000	  0.000000	  0.000000	  0.000000	  0.000000	  1.198627	  0.000000	 -0.163534	  0.000000	  0.000000	  0.000000
0.022500	  0.000000	  0.000000	  0.000000	  0.238595	  0.000000	 -0.638659	  0.000000	  0.000000	  0.000000	  0.000000	  0.000000	  0.000000	  1.197728	  0.000000	 -0.163305	  0.000000	  0.000000	  0.000000
0.023000	  0.000000	  0.000000	  0.000000	  0.240266	  0.000000	 -0.640458	  0.000000	  0.000000	  0.000000	  0.000000	  0.000000	  0.000000	  1.196829	  0.000000	 -0.163076	  0.000000	  0.000000	  0.000000
0.023500	  0.000000	  0.000000	  0.000000	  0.241937	  0.000000	 -0.642257	  0.000000	  0.000000	  0.000000	  0.000000	  0.000000	  0.000000	  1.195930	  0.000000	 -0.162846	  0.000000	  0.000000	  0.000000
0.024000	  0.000000	  0.000000	  0.000000	  0.243609	  0.000000	 -0.644057	  0.000000	  0.000000	  0.000000	  0.000000	  0.000000	  0.000000	  1.195032	  0.000000	 -0.162617	  0.000000	  0.000000	  0.000000
0.024500	  0.000000	  0.000000	  0.000000	  0.245280	  0.000000	 -0.645856	  0.000000	  0.000000	  0.000000	  0.000000	  0.000000	  0.000000	  1.194133	  0.000000	 -0.162387	  0.000000	  0.000000	  0.000000
0.025000	  0.000000	  0.000000	  0.000000	  0.246951	  0.000000	 -0.647656	  0.000000	  0.000000	  0.000000	  0.000000	  0.000000	  0.000000	  1.193234	  0.000000	 -0.162158	  0.000000	  0.000000	  0.000000
0.025500	  0.000000	  0.000000	  0.000000	  0.248733	  0.000000	 -0.649314	  0.000000	  0.000000	  0.000000	  0.000000	  0.000000	  0.000000	  1.192042	  0.000000	 -0.161838	  0.000000	  0.000000	  0.000000
0.026000	  0.000000	  0.000000	  0.000000	  0.250515	  0.000000	 -0.650973	  0.000000	  0.000000	  0.000000	  0.000000	  0.000000	  0.000000	  1.190850	  0.000000	 -0.161518	  0.000000	  0.000000	  0.000000
0.026500	  0.000000	  0.000000	  0.000000	  0.252297	  0.000000	 -0.652631	  0.000000	  0.000000	  0.000000	  0.000000	  0.000000	  0.000000	  1.189657	  0.000000	 -0.161198	  0.000000	  0.000000	  0.000000
0.027000	  0.000000	  0.000000	  0.000000	  0.254079	  0.000000	 -0.654290	  0.000000	  0.000000	  0.000000	  0.000000	  0.000000	  0.000000	  1.188465	  0.000000	 -0.160878	  0.000000	  0.000000	  0.000000
0.027500	  0.000000	  0.000000	  0.000000	  0.255861	  0.000000	 -0.655948	  0.000000	  0.000000	  0.000000	  0.000000	  0.000000	  0.000000	  1.187273	  0.000000	 -0.160558	  0.000000	  0.000000	  0.000000
0.028000	  0.000000	  0.000000	  0.000000	  0.257644	  0.000000	 -0.657606	  0.000000	  0.000000	  0.000000	  0.000000	  0.000000	  0.000000	  1.186081	  0.000000	 -0.160239	  0.000000	  0.000000	  0.000000
